HIERARCHY
ROOT Hips
{
	OFFSET 0.000000 89.005402 0.000000
	CHANNELS 6 Xposition Yposition Zposition Xrotation Yrotation Zrotation
	JOINT Spine
	{
		OFFSET 0.116900 10.681000 0.373400
		CHANNELS 3 Xrotation Yrotation Zrotation
		JOINT Spine1
		{
			OFFSET 0.000000 13.840401 0.053500
			CHANNELS 3 Xrotation Yrotation Zrotation
			JOINT Spine2
			{
				OFFSET 0.000000 14.712700 -0.366200
				CHANNELS 3 Xrotation Yrotation Zrotation
				JOINT Neck
				{
					OFFSET 0.000000 35.415497 -3.314200
					CHANNELS 3 Xrotation Yrotation Zrotation
					JOINT Head
					{
						OFFSET 0.000000 16.899200 1.218300
						CHANNELS 3 Xrotation Yrotation Zrotation
						JOINT HeadTop_End
						{
							OFFSET 0.000000 22.206207 2.192500
							CHANNELS 3 Xrotation Yrotation Zrotation
							End Site
							{
								OFFSET 0.000000 22.314178 0.000000
							}
						}
					}
				}
				JOINT LeftShoulder
				{
					OFFSET 12.896400 26.716293 -4.548400
					CHANNELS 3 Xrotation Yrotation Zrotation
					JOINT LeftArm
					{
						OFFSET 19.027000 -4.857010 -1.718400
						CHANNELS 3 Xrotation Yrotation Zrotation
						JOINT LeftForeArm
						{
							OFFSET 24.179897 0.000000 0.000000
							CHANNELS 3 Xrotation Yrotation Zrotation
							JOINT LeftHand
							{
								OFFSET 27.156403 0.000000 0.000000
								CHANNELS 3 Xrotation Yrotation Zrotation
								JOINT LeftHandIndex1
								{
									OFFSET 16.441200 0.000000 0.000000
									CHANNELS 3 Xrotation Yrotation Zrotation
									JOINT LeftHandIndex2
									{
										OFFSET 4.821899 0.000000 0.000000
										CHANNELS 3 Xrotation Yrotation Zrotation
										JOINT LeftHandIndex3
										{
											OFFSET 6.386497 0.000000 0.000000
											CHANNELS 3 Xrotation Yrotation Zrotation
											JOINT LeftHandIndex4
											{
												OFFSET 5.188988 0.000000 0.000000
												CHANNELS 3 Xrotation Yrotation Zrotation
												End Site
												{
													OFFSET -0.178703 5.185913 0.000177
												}
											}
										}
									}
								}
								JOINT LeftHandThumb1
								{
									OFFSET 6.534897 -5.032593 5.900300
									CHANNELS 3 Xrotation Yrotation Zrotation
									JOINT LeftHandThumb2
									{
										OFFSET 3.818176 -2.204422 2.204423
										CHANNELS 3 Xrotation Yrotation Zrotation
										JOINT LeftHandThumb3
										{
											OFFSET 3.252098 -1.877594 1.877601
											CHANNELS 3 Xrotation Yrotation Zrotation
											JOINT LeftHandThumb4
											{
												OFFSET 5.251778 -3.032120 3.032117
												CHANNELS 3 Xrotation Yrotation Zrotation
												End Site
												{
													OFFSET 0.000023 6.780014 0.000000
												}
											}
										}
									}
								}
							}
						}
					}
				}
				JOINT RightShoulder
				{
					OFFSET -12.896300 26.716293 -4.548400
					CHANNELS 3 Xrotation Yrotation Zrotation
					JOINT RightArm
					{
						OFFSET -19.027000 -4.857010 -1.718400
						CHANNELS 3 Xrotation Yrotation Zrotation
						JOINT RightForeArm
						{
							OFFSET -24.179897 0.000000 0.000000
							CHANNELS 3 Xrotation Yrotation Zrotation
							JOINT RightHand
							{
								OFFSET -27.156403 0.000000 0.000000
								CHANNELS 3 Xrotation Yrotation Zrotation
								JOINT RightHandThumb1
								{
									OFFSET -6.591202 -4.852203 5.988100
									CHANNELS 3 Xrotation Yrotation Zrotation
									JOINT RightHandThumb2
									{
										OFFSET -3.818176 -2.204422 2.204423
										CHANNELS 3 Xrotation Yrotation Zrotation
										JOINT RightHandThumb3
										{
											OFFSET -3.252098 -1.877594 1.877601
											CHANNELS 3 Xrotation Yrotation Zrotation
											JOINT RightHandThumb4
											{
												OFFSET -5.251778 -3.032120 3.032117
												CHANNELS 3 Xrotation Yrotation Zrotation
												End Site
												{
													OFFSET -0.000023 6.780014 0.000000
												}
											}
										}
									}
								}
								JOINT RightHandIndex1
								{
									OFFSET -16.029404 0.000000 0.000000
									CHANNELS 3 Xrotation Yrotation Zrotation
									JOINT RightHandIndex2
									{
										OFFSET -5.213303 0.000000 0.000000
										CHANNELS 3 Xrotation Yrotation Zrotation
										JOINT RightHandIndex3
										{
											OFFSET -6.386528 0.000000 0.000000
											CHANNELS 3 Xrotation Yrotation Zrotation
											JOINT RightHandIndex4
											{
												OFFSET -5.189026 0.000000 0.000000
												CHANNELS 3 Xrotation Yrotation Zrotation
												End Site
												{
													OFFSET 0.236702 5.183624 0.001972
												}
											}
										}
									}
								}
							}
						}
					}
				}
			}
		}
	}
	JOINT LeftUpLeg
	{
		OFFSET 14.073000 -7.904099 -1.463000
		CHANNELS 3 Xrotation Yrotation Zrotation
		JOINT LeftLeg
		{
			OFFSET -0.109806 -34.073280 4.093200
			CHANNELS 3 Xrotation Yrotation Zrotation
			JOINT LeftFoot
			{
				OFFSET 0.109806 -29.899420 -6.319000
				CHANNELS 3 Xrotation Yrotation Zrotation
				JOINT LeftToeBase
				{
					OFFSET 1.551100 -14.988700 20.535801
					CHANNELS 3 Xrotation Yrotation Zrotation
					JOINT LeftToe_End
					{
						OFFSET 0.221200 0.570800 13.248301
						CHANNELS 3 Xrotation Yrotation Zrotation
						End Site
						{
							OFFSET 0.000000 13.262435 0.000000
						}
					}
				}
			}
		}
	}
	JOINT RightUpLeg
	{
		OFFSET -13.839300 -7.904099 -1.463000
		CHANNELS 3 Xrotation Yrotation Zrotation
		JOINT RightLeg
		{
			OFFSET 0.109694 -34.073219 4.093300
			CHANNELS 3 Xrotation Yrotation Zrotation
			JOINT RightFoot
			{
				OFFSET -0.109694 -29.899384 -6.319200
				CHANNELS 3 Xrotation Yrotation Zrotation
				JOINT RightToeBase
				{
					OFFSET -1.551100 -14.988700 20.535801
					CHANNELS 3 Xrotation Yrotation Zrotation
					JOINT RightToe_End
					{
						OFFSET -0.221200 0.570900 13.248299
						CHANNELS 3 Xrotation Yrotation Zrotation
						End Site
						{
							OFFSET 0.000000 13.262440 0.000000
						}
					}
				}
			}
		}
	}
}
MOTION
Frames: 7
Frame Time: 0.033333
0.963437 69.437653 20.704334 116.915831 -2.717308 -1.538624 4.897308 -0.275573 0.375699 9.075491 0.015154 0.465905 9.075663 -0.006076 0.466262 -32.794972 0.204375 1.921936 -26.650672 5.787667 0.082119 0.000001 0.000000 0.000000 4.087787 -5.604452 34.719781 -78.899996 -2.723301 -42.079576 -0.000000 -38.688910 -0.000002 40.358509 -13.827505 58.185268 8.343700 -8.065945 46.022733 0.219381 1.589722 -15.713103 0.091976 1.035115 -10.155269 0.000000 -0.000000 0.000000 1.627821 -18.166085 34.641910 16.795534 29.794221 4.107947 1.725313 -9.384384 24.075491 -0.000000 0.000000 0.000002 -0.590833 0.600315 -39.710276 -84.481353 8.035810 57.960418 -0.000018 42.366321 -0.000011 13.813613 3.514763 -50.860789 -15.674453 13.223418 -38.817328 13.582552 -8.388093 -4.639225 2.403921 -5.456378 -21.321861 0.000000 0.000001 -0.000000 10.128657 6.732721 -57.221972 0.130405 -1.095504 13.576568 0.027104 -0.502291 6.177929 -0.000001 0.000000 0.000000 -107.480676 -7.313140 18.191888 34.747549 3.906268 -10.233548 -26.352589 10.228117 -10.038898 -6.142323 0.068185 -2.404723 -0.000001 -0.000000 0.000000 -111.246638 2.131896 -14.153294 38.807724 -4.964553 8.163350 -29.265670 -8.249758 7.732222 -1.678426 0.000004 0.000004 -0.000001 0.000001 0.000000 
1.100869 70.318481 21.431305 117.726288 -2.372862 -1.527599 4.702179 -0.554555 0.292486 8.731446 -0.065656 0.525941 8.731850 -0.072644 0.519028 -32.274676 0.319994 1.765579 -27.263989 6.140536 0.410248 -0.000001 0.000000 -0.000000 5.526251 -8.334162 33.178211 -70.539803 -12.137692 -35.983991 0.000001 -34.569268 0.000021 31.955382 -12.376512 70.131146 5.911879 -6.939344 38.653420 0.204721 1.536705 -15.175999 0.091487 1.032389 -10.128006 -0.000000 -0.000000 -0.000001 1.714204 -16.774711 32.399013 16.756662 29.866699 4.281510 1.798893 -9.672059 24.764393 -0.000000 -0.000000 0.000002 1.671891 5.722265 -38.861591 -77.147752 16.875413 49.160874 0.000009 38.844768 -0.000001 6.556705 1.454710 -60.869915 -15.832168 11.638363 -41.492682 13.629703 -7.942703 -4.599510 2.434240 -5.475776 -21.293757 0.000001 0.000001 -0.000001 6.374156 4.286555 -55.759520 0.141305 -1.139691 14.134908 0.037967 -0.594108 7.313142 0.000000 0.000000 -0.000000 -99.126324 -5.384873 17.567434 30.782375 4.605384 -8.834216 -17.490007 6.487303 -8.974886 -17.165191 1.689407 -6.799041 -0.000000 0.000000 0.000000 -102.877634 1.258396 -12.330435 40.193249 -6.288497 6.494388 -24.454217 -5.809339 7.721490 -4.282137 -0.231033 4.388474 -0.000000 0.000000 -0.000001 
1.205137 70.213867 22.489548 117.853084 -1.859982 -1.573054 4.301843 -0.937026 0.122870 7.943516 -0.071364 0.556110 7.944080 -0.069244 0.547591 -31.655465 0.255334 2.088919 -27.049735 6.643738 0.364677 -0.000001 -0.000001 -0.000000 5.869413 -10.334813 29.193885 -60.914776 -21.681712 -31.088354 -0.000012 -31.980759 -0.000005 25.429124 -9.388262 80.340940 3.225891 -4.534985 30.640782 0.190567 1.483551 -14.638900 0.091540 1.032694 -10.131138 -0.000000 0.000002 0.000001 1.845439 -14.882397 29.129271 16.720691 29.937088 4.454751 1.880571 -9.959353 25.454317 -0.000000 -0.000000 0.000001 3.597988 10.647885 -34.068321 -67.244811 25.965488 40.289080 -0.000010 36.733942 0.000003 0.794470 -2.194560 -70.881477 -15.900525 8.378923 -42.850271 13.680373 -7.495230 -4.562479 2.467775 -5.492754 -21.265589 -0.000003 -0.000001 0.000003 2.056903 1.102635 -50.043017 0.132080 -1.102423 13.663854 0.053105 -0.702059 8.651370 -0.000000 -0.000002 0.000001 -88.578223 -3.727638 16.804202 22.198409 4.903942 -6.989102 -6.917052 1.656708 -7.526366 -26.374101 3.741000 -8.138772 0.000000 -0.000000 -0.000000 -94.580963 1.118334 -10.507514 42.206082 -7.708407 4.496529 -20.103808 -2.348878 6.087380 -2.898665 -0.075241 2.503665 -0.000001 0.000000 0.000000 
1.284924 68.666351 23.298542 117.532119 -1.569769 -1.445167 3.777565 -1.134572 -0.068582 6.720091 -0.026053 0.569931 6.720524 -0.020427 0.563872 -31.266267 0.120219 2.472740 -25.413363 6.868176 0.083638 -0.000000 0.000000 0.000000 5.311575 -11.499929 22.774265 -55.243041 -28.043165 -29.207689 0.000017 -31.730894 -0.000000 25.435449 -7.331376 86.610603 1.638421 -2.369596 24.286855 0.176911 1.430247 -14.101808 0.088489 1.015485 -9.960406 -0.000001 -0.000001 0.000002 1.975146 -13.774469 27.031976 16.687655 30.005431 4.627649 1.970318 -10.246191 26.145216 0.000000 0.000000 0.000001 4.067122 13.219916 -26.655863 -60.521712 31.421428 36.147653 -0.000020 38.058603 0.000011 1.052085 -3.416302 -78.061488 -15.416849 4.758657 -40.465008 13.734596 -7.045807 -4.528198 2.504470 -5.507186 -21.237319 -0.000000 -0.000004 -0.000000 0.501250 -0.535182 -41.461137 0.123022 -1.064468 13.184708 0.056511 -0.724092 8.925092 0.000000 -0.000001 -0.000001 -78.054849 -2.634682 15.360542 14.242129 5.936950 -3.451512 0.458498 -1.668757 -8.610794 -27.493045 3.894596 -7.709911 0.000002 -0.000000 0.000000 -85.104560 1.285259 -9.222877 36.779046 -8.536278 2.627809 -10.181782 -0.325712 4.405226 -3.195468 -0.055279 2.128331 0.000002 0.000000 0.000000 
1.559321 66.056007 22.430740 115.828165 -1.393922 -1.392249 3.376244 -0.842183 -0.085269 5.532083 0.015868 0.589384 5.532332 0.022016 0.586215 -30.710173 0.028258 2.573238 -23.234465 6.534127 -0.327553 0.000000 -0.000000 -0.000000 4.664937 -13.131908 14.843813 -54.041365 -32.624757 -29.233216 -0.000007 -30.459434 -0.000004 30.411185 -7.196770 90.051659 0.884236 -1.013230 18.743605 0.163762 1.376868 -13.564720 0.083227 0.985047 -9.658934 -0.000000 0.000000 -0.000001 2.138772 -13.365613 25.505461 16.657616 30.071793 4.800127 2.068125 -10.532486 26.837106 0.000001 -0.000000 -0.000005 3.662397 13.542098 -18.749132 -59.161808 34.993036 37.190561 0.000008 38.184227 -0.000002 6.216227 -2.385536 -82.564679 -14.324018 2.140632 -35.950981 13.792397 -6.594357 -4.496714 2.544307 -5.519045 -21.208955 0.000001 -0.000001 0.000002 0.731423 -0.127075 -31.302190 0.114181 -1.026003 12.700434 0.051034 -0.688318 8.480890 -0.000000 0.000001 -0.000001 -69.772828 -2.207426 14.294786 12.636120 5.961425 -0.594458 4.149977 -4.497421 -12.052649 -20.671165 1.573641 -4.273503 0.000001 -0.000000 -0.000000 -73.545018 1.232878 -9.341327 27.872834 -6.844565 1.349843 3.290997 0.016348 6.494785 -2.535698 -0.000002 -0.000004 -0.000001 -0.000000 0.000000 
1.794939 63.464302 20.681385 112.594528 -0.873708 -1.469990 3.191160 -0.647295 -0.087528 4.819688 0.005164 0.588681 4.819915 0.011778 0.586393 -29.540732 -0.052708 2.602609 -22.219285 5.910345 -1.013981 0.000002 0.000000 -0.000000 4.071364 -15.270187 7.739671 -54.117645 -36.938069 -29.323525 0.000011 -26.292538 0.000009 35.754083 -8.951079 92.546147 0.541169 -0.231176 14.281648 0.151104 1.323327 -13.027660 0.077897 0.953182 -9.343674 0.000000 0.000001 0.000000 2.289613 -13.280238 24.414359 16.630595 30.136103 4.972161 2.173965 -10.818118 27.529926 -0.000000 0.000000 0.000001 3.202290 12.818748 -12.331517 -60.221689 38.092074 40.305301 -0.000007 35.190521 0.000011 11.463802 1.163564 -85.718396 -12.839542 0.210841 -30.954117 13.853826 -6.140984 -4.468091 2.587219 -5.528190 -21.180475 -0.000002 -0.000000 -0.000000 0.862016 0.663769 -21.708599 0.105686 -0.987568 12.216365 0.046350 -0.656140 8.081486 0.000000 -0.000002 0.000000 -61.477822 -1.415411 13.209010 11.031786 3.781174 1.638842 9.248670 -8.021778 -15.256599 -6.245131 -0.051252 0.407811 0.000002 0.000000 -0.000000 -60.943695 0.656565 -9.969512 17.122854 -5.921869 0.404395 20.804060 0.965233 9.966076 -3.293598 -0.000004 -0.000001 0.000000 0.000000 0.000000 
1.898661 60.621315 18.387329 108.901451 -0.666104 -1.433758 3.115071 -0.677431 -0.252857 4.604277 -0.057926 0.527762 4.604694 -0.049082 0.524336 -27.809458 -0.209349 2.928842 -22.826277 5.490273 -2.011456 -0.000002 -0.000000 -0.000000 3.441352 -16.275468 2.781892 -52.157329 -38.485053 -28.214963 -0.000001 -26.397214 -0.000018 38.860457 -9.188529 92.965076 0.369140 0.272251 11.307333 0.138955 1.269689 -12.490626 0.073155 0.923920 -9.054346 -0.000001 0.000000 0.000002 2.403406 -13.269241 23.654239 16.606673 30.198524 5.143698 2.287826 -11.103112 28.223711 0.000000 0.000000 0.000000 2.893592 11.964581 -8.014390 -60.580458 39.927121 42.813716 0.000000 33.775521 -0.000012 14.758280 3.849802 -87.535588 -11.580877 -1.094860 -27.430499 13.918923 -5.685793 -4.442401 2.633138 -5.534577 -21.151854 -0.000001 -0.000000 -0.000000 0.684285 0.686011 -15.093221 0.097524 -0.949089 11.733538 0.044323 -0.641659 7.902201 0.000001 0.000000 0.000001 -54.881502 -0.565573 12.566696 11.996434 1.043083 3.186682 12.294501 -11.135133 -17.544654 -0.700525 0.000380 -0.125284 -0.000000 -0.000000 0.000000 -52.743568 0.471734 -10.094460 14.106030 -6.524133 -0.473140 33.541580 2.405411 11.636799 -4.010524 -0.000007 -0.000001 -0.000000 0.000000 -0.000000 
